<svg id="Icons" enable-background="new 0 0 512 512" height="512" viewBox="0 0 512 512" width="512" xmlns="http://www.w3.org/2000/svg"><g><circle cx="256" cy="256" fill="#22bce0" r="256"/><g><path d="m255.963 483.17c-.001 0-.002 0-.003 0-1.594-.001-3.192-.018-4.792-.052-5.278-.111-10.612-.408-15.855-.883-2.75-.248-4.778-2.68-4.529-5.43s2.681-4.771 5.43-4.529c5.015.453 10.117.737 15.167.844 1.532.032 3.061.049 4.586.05 2.762.002 4.999 2.242 4.997 5.003s-2.241 4.997-5.001 4.997zm40.225-3.621c-2.368 0-4.472-1.689-4.913-4.103-.496-2.716 1.304-5.32 4.021-5.817 6.457-1.18 12.935-2.674 19.253-4.44 2.66-.747 5.418.81 6.162 3.469.743 2.66-.81 5.419-3.469 6.162-6.612 1.849-13.392 3.412-20.148 4.647-.306.054-.609.082-.906.082zm-100.155-4.569c-.446 0-.899-.06-1.349-.186-6.613-1.849-13.22-4.027-19.637-6.474-2.58-.983-3.875-3.873-2.891-6.453s3.875-3.874 6.453-2.891c6.133 2.338 12.447 4.42 18.767 6.187 2.66.743 4.213 3.502 3.469 6.162-.617 2.21-2.625 3.655-4.812 3.655zm157.618-14.368c-1.849 0-3.625-1.028-4.493-2.8-1.216-2.48-.191-5.476 2.288-6.69 5.891-2.888 11.724-6.084 17.335-9.501 2.36-1.438 5.436-.688 6.871 1.67 1.437 2.359.688 5.436-1.67 6.871-5.871 3.574-11.972 6.918-18.134 9.938-.707.348-1.458.512-2.197.512zm-213.092-9.741c-.887 0-1.784-.236-2.597-.731-5.86-3.57-11.629-7.456-17.148-11.55-2.218-1.645-2.682-4.776-1.037-6.994 1.644-2.219 4.776-2.683 6.995-1.037 5.276 3.913 10.792 7.628 16.394 11.042 2.358 1.437 3.105 4.513 1.668 6.871-.942 1.546-2.588 2.399-4.275 2.399zm263.288-24.033c-1.376 0-2.745-.564-3.733-1.672-1.838-2.061-1.657-5.222.403-7.06 4.9-4.371 9.659-9.019 14.144-13.812 1.887-2.018 5.05-2.124 7.066-.236 2.018 1.886 2.123 5.05.236 7.067-4.689 5.013-9.665 9.872-14.79 14.443-.953.852-2.143 1.27-3.326 1.27zm-310.192-14.169c-1.336 0-2.67-.532-3.654-1.586-4.689-5.019-9.203-10.311-13.417-15.729-1.695-2.18-1.303-5.321.877-7.017 2.179-1.693 5.32-1.302 7.016.878 4.03 5.182 8.346 10.241 12.83 15.04 1.885 2.019 1.778 5.183-.24 7.067-.963.901-2.189 1.347-3.412 1.347zm349.463-31.84c-.925 0-1.859-.257-2.695-.793-2.324-1.491-2.999-4.584-1.508-6.908 3.547-5.528 6.879-11.282 9.904-17.102 1.274-2.452 4.296-3.403 6.742-2.131 2.45 1.273 3.404 4.292 2.131 6.742-3.165 6.089-6.65 12.107-10.361 17.891-.955 1.489-2.566 2.301-4.213 2.301zm-384.391-17.556c-1.807 0-3.551-.981-4.441-2.695-3.168-6.099-6.091-12.413-8.687-18.769-1.044-2.557.182-5.476 2.738-6.52 2.56-1.044 5.476.183 6.52 2.738 2.481 6.074 5.274 12.11 8.303 17.938 1.273 2.451.319 5.47-2.132 6.742-.736.385-1.525.566-2.301.566zm409.803-37.337c-.483 0-.974-.07-1.46-.219-2.642-.805-4.13-3.599-3.324-6.24 1.911-6.271 3.558-12.713 4.892-19.146.56-2.705 3.201-4.446 5.911-3.881 2.703.561 4.44 3.207 3.88 5.91-1.396 6.731-3.117 13.471-5.118 20.032-.657 2.156-2.639 3.544-4.781 3.544zm-430.094-19.665c-2.321 0-4.401-1.625-4.891-3.987-1.391-6.716-2.489-13.585-3.264-20.414-.311-2.744 1.661-5.221 4.405-5.531 2.743-.325 5.22 1.66 5.531 4.404.74 6.528 1.79 13.094 3.119 19.514.56 2.703-1.178 5.35-3.882 5.91-.34.07-.682.104-1.018.104zm439.674-40.06c-.041 0-.082 0-.123-.001-2.761-.067-4.944-2.359-4.878-5.12l.011-.453c.033-1.591.05-3.162.05-4.729 0-5.008-.174-10.072-.516-15.051-.189-2.755 1.891-5.142 4.646-5.331 2.743-.182 5.142 1.891 5.331 4.646.357 5.206.539 10.5.539 15.736 0 1.638-.017 3.279-.052 4.926l-.012.499c-.065 2.719-2.291 4.878-4.996 4.878zm-443.767-20.292c-.113 0-.226-.004-.34-.012-2.755-.185-4.839-2.568-4.654-5.323.461-6.863 1.241-13.774 2.316-20.54.434-2.727 3-4.589 5.723-4.152 2.727.434 4.586 2.995 4.153 5.723-1.029 6.469-1.774 13.077-2.215 19.64-.176 2.641-2.374 4.664-4.983 4.664zm436.872-40.282c-2.228 0-4.26-1.5-4.839-3.758-1.632-6.359-3.578-12.716-5.785-18.894-.929-2.601.427-5.461 3.027-6.391 2.6-.927 5.462.426 6.391 3.027 2.309 6.464 4.346 13.116 6.053 19.771.687 2.675-.925 5.399-3.6 6.086-.417.108-.835.159-1.247.159zm-424.651-18.952c-.555 0-1.119-.093-1.671-.289-2.603-.923-3.964-3.781-3.041-6.384 2.295-6.469 4.917-12.911 7.796-19.146 1.157-2.507 4.128-3.599 6.635-2.444 2.507 1.158 3.601 4.129 2.444 6.636-2.75 5.958-5.257 12.114-7.45 18.298-.727 2.049-2.655 3.329-4.713 3.329zm401.732-37.031c-1.725 0-3.401-.893-4.329-2.491-3.291-5.671-6.888-11.267-10.689-16.63-1.597-2.253-1.065-5.374 1.188-6.971s5.374-1.065 6.971 1.188c3.977 5.61 7.738 11.462 11.18 17.394 1.387 2.389.574 5.448-1.814 6.834-.792.459-1.656.676-2.507.676zm-373.908-16.669c-.997 0-2.003-.297-2.88-.916-2.256-1.593-2.793-4.713-1.2-6.968 3.956-5.603 8.222-11.096 12.681-16.329 1.791-2.103 4.946-2.355 7.049-.563 2.102 1.79 2.354 4.946.563 7.048-4.263 5.005-8.342 10.257-12.124 15.612-.975 1.38-2.52 2.116-4.089 2.116zm336.715-31.053c-1.259 0-2.52-.473-3.491-1.421-4.704-4.589-9.67-9.013-14.761-13.148-2.143-1.742-2.469-4.891-.728-7.034 1.742-2.144 4.893-2.467 7.034-.728 5.323 4.326 10.518 8.953 15.437 13.752 1.977 1.929 2.017 5.094.088 7.07-.98 1.005-2.28 1.509-3.579 1.509zm-295.432-13.177c-1.451 0-2.889-.628-3.877-1.84-1.746-2.14-1.426-5.29.714-7.035 5.324-4.342 10.909-8.489 16.599-12.328 2.29-1.544 5.397-.938 6.941 1.35 1.544 2.289.94 5.396-1.349 6.941-5.44 3.669-10.78 7.635-15.871 11.787-.928.757-2.046 1.125-3.157 1.125zm246.797-22.803c-.811 0-1.633-.197-2.395-.614-5.769-3.155-11.74-6.075-17.75-8.679-2.534-1.098-3.698-4.042-2.601-6.575s4.041-3.696 6.575-2.601c6.289 2.725 12.539 5.78 18.574 9.081 2.423 1.325 3.312 4.363 1.987 6.786-.907 1.662-2.622 2.602-4.39 2.602zm-195.153-8.709c-1.928 0-3.765-1.121-4.585-3.002-1.104-2.531.053-5.478 2.584-6.582 6.292-2.745 12.792-5.231 19.318-7.391 2.62-.865 5.45.555 6.317 3.177s-.555 5.45-3.177 6.317c-6.236 2.062-12.447 4.439-18.46 7.062-.651.285-1.33.419-1.997.419zm138.623-12.774c-.371 0-.747-.041-1.123-.128-6.394-1.467-12.935-2.656-19.441-3.535-2.736-.37-4.655-2.888-4.286-5.624s2.889-4.648 5.624-4.286c6.808.919 13.651 2.164 20.34 3.699 2.691.617 4.373 3.3 3.755 5.991-.533 2.315-2.591 3.883-4.869 3.883zm-80.392-3.574c-2.46 0-4.604-1.816-4.947-4.322-.375-2.735 1.539-5.258 4.274-5.633 6.792-.931 13.717-1.561 20.586-1.873 2.743-.095 5.097 2.009 5.222 4.769.125 2.758-2.009 5.096-4.768 5.222-6.567.298-13.189.9-19.682 1.791-.23.03-.459.046-.685.046z" fill="#83d5ef"/></g><g><g><g><g><path d="m299.602 54.985h-22.044c-12.709 0-23.924 6.4-30.593 16.154-4.065 5.945-6.445 13.136-6.445 20.881v20.517c0 20.454 16.581 37.035 37.038 37.035h22.044z" fill="#f39e22"/><g><path d="m240.519 97.24h39.052v10.077h-39.052z" fill="#ea792e"/><path d="m240.519 97.24h39.052v3.956h-39.052z" fill="#dd5e26"/></g><g><path d="m279.571 113.645v10.074h-37.331c-.628-1.973-1.089-4.018-1.374-6.121-.18-1.296-.291-2.614-.327-3.952h39.032z" fill="#ea792e"/><path d="m279.571 113.645v3.952h-38.705c-.18-1.296-.291-2.614-.327-3.952z" fill="#dd5e26"/></g><g><path d="m289.062 130.046v10.077h-36.215c-2.045-1.829-3.884-3.884-5.477-6.125-.9-1.26-1.721-2.581-2.457-3.952z" fill="#ea792e"/><path d="m289.062 130.046v3.952h-41.692c-.9-1.26-1.721-2.581-2.457-3.952z" fill="#dd5e26"/></g><g><path d="m295.39 146.451v3.121h-17.831c-5.304 0-10.342-1.112-14.903-3.121z" fill="#ea792e"/><path d="m295.39 146.451v3.121h-17.831c-5.304 0-10.342-1.112-14.903-3.121z" fill="#dd5e26"/></g><g><path d="m279.571 80.839v10.074h-39.035c.062-2.091.294-4.132.69-6.121.085-.432.177-.86.281-1.289l.733-2.663h37.331z" fill="#ea792e"/><path d="m279.571 80.839v3.952h-38.345c.085-.432.177-.86.281-1.289l.733-2.663z" fill="#dd5e26"/></g><g><path d="m289.419 64.434v10.077h-44.509c.625-1.165 1.312-2.29 2.055-3.373.651-.949 1.345-1.868 2.078-2.752 1.168-1.41 2.441-2.732 3.805-3.952z" fill="#ea792e"/><path d="m289.419 64.434v3.952h-40.377c1.168-1.41 2.441-2.732 3.805-3.952z" fill="#dd5e26"/></g><g><path d="m297.036 56.504v1.603h-34.38c4.558-2.009 9.599-3.121 14.903-3.121h8.955c3.654-.001 7.188.529 10.522 1.518z" fill="#ea792e"/></g></g><path d="m338.818 92.02v20.517c0 3.119-.386 6.147-1.114 9.042-4.034 16.081-18.587 27.993-35.924 27.993h-8.957c-20.457 0-37.038-16.581-37.038-37.035v-20.517c0-7.745 2.379-14.936 6.445-20.881 6.669-9.754 17.885-16.154 30.593-16.154h8.957c20.457 0 37.038 16.582 37.038 37.035z" fill="#f9c744"/><path d="m338.818 92.02v20.517c0 3.119-.386 6.147-1.114 9.042-5.467 1.867-11.269 2.87-17.28 2.87-28.727 0-52.689-22.893-58.194-53.309 6.669-9.754 17.885-16.154 30.593-16.154h8.957c20.457-.001 37.038 16.581 37.038 37.034z" fill="#fad98f"/><path d="m312.205 72.947c-2.225 1.405-2.891 4.348-1.486 6.573l8.36 13.243c1.405 2.225 4.348 2.891 6.573 1.486 2.225-1.405 2.891-4.348 1.486-6.573l-8.36-13.243c-1.405-2.225-4.348-2.89-6.573-1.486z" fill="#faefdc"/><g><path d="m301.388 59.123h-8.173c-11.597 0-21.831 5.84-27.917 14.741-3.71 5.425-5.881 11.987-5.881 19.054v18.722c0 18.664 15.13 33.795 33.797 33.795h8.173c15.82 0 29.1-10.869 32.781-25.544.664-2.642 1.016-5.404 1.016-8.251v-18.722c.001-18.664-15.129-33.795-33.796-33.795zm32.38 52.166c0 2.74-.339 5.399-.978 7.942-3.543 14.125-16.326 24.588-31.555 24.588h-7.867c-17.969 0-32.533-14.564-32.533-32.53v-18.021c0-6.803 2.09-13.119 5.661-18.341 5.858-8.567 15.709-14.189 26.872-14.189h7.867c17.969 0 32.533 14.564 32.533 32.53z" fill="#dd5e26"/><path d="m301.235 60.738h-7.867c-11.163 0-21.014 5.622-26.872 14.189-3.571 5.222-5.661 11.538-5.661 18.341v18.021c0 17.966 14.564 32.53 32.533 32.53h7.867c15.229 0 28.012-10.463 31.555-24.588.639-2.543.978-5.202.978-7.942v-18.021c0-17.966-14.564-32.53-32.533-32.53zm29.164 49.719c0 2.487-.308 4.901-.888 7.209-3.216 12.821-14.818 22.317-28.64 22.317h-7.14c-16.309 0-29.528-13.219-29.528-29.525v-16.358c0-6.174 1.897-11.907 5.138-16.647 5.317-7.776 14.258-12.879 24.39-12.879h7.14c16.309 0 29.528 13.219 29.528 29.525z" fill="#ea792e"/></g></g><g><path d="m317.698 119.204v3.64c0 1.932-1.57 3.498-3.502 3.498h-28.088c-2.393 0-4.212-2.15-3.817-4.51l1.562-9.32-8.273 3.013c-1.385.504-2.918-.21-3.426-1.599l-.946-2.603c-.058-.163-.102-.326-.127-.493-.199-1.236.5-2.483 1.726-2.933l9.367-3.408 3.216-1.171 3.926-23.44.112-.667c.286-1.707 1.765-2.958 3.495-2.958h7.247c2.193 0 3.857 1.968 3.498 4.129l-2.907 17.343 7.566-2.755c1.385-.504 2.918.21 3.422 1.599l.95 2.603c.504 1.385-.21 2.918-1.599 3.426l-1.9.692-9.976 3.629-.413 2.454-.45 2.694c-.319 1.907 1.149 3.64 3.078 3.64h12.757c1.932-.002 3.502 1.564 3.502 3.497z" fill="#dd5e26"/><path d="m310.571 119.331h-12.757c-1.929 0-3.397-1.733-3.078-3.64l.746-4.452.528-3.152 3.214-1.169 9.976-3.629c-.025-.167-.069-.33-.127-.493l-.95-2.603c-.504-1.388-2.037-2.103-3.422-1.599l-7.566 2.755 2.907-17.343c.359-2.161-1.305-4.129-3.498-4.129h-7.229l-3.926 23.44-.411 2.456-3.214 1.169-10.683 3.886c.025.167.069.33.127.493l.946 2.603c.508 1.388 2.041 2.103 3.426 1.599l8.273-3.013-1.562 9.32c-.395 2.36 1.425 4.51 3.817 4.51h27.965v-3.513c0-1.93-1.57-3.496-3.502-3.496z" fill="#ea792e"/></g></g><g><g><g><path d="m349.997 131.072h-23.816c-13.731 0-25.848 6.915-33.054 17.453-4.392 6.423-6.963 14.192-6.963 22.56v22.167c0 22.098 17.915 40.013 40.016 40.013h23.816v-102.193z" fill="#f39e22"/><g><path d="m286.164 176.724h42.192v10.887h-42.192z" fill="#ea792e"/><path d="m286.164 176.724h42.192v4.274h-42.192z" fill="#dd5e26"/></g><g><path d="m328.355 194.448v10.884h-40.333c-.679-2.132-1.177-4.341-1.485-6.614-.194-1.4-.315-2.824-.353-4.27z" fill="#ea792e"/><path d="m328.355 194.448v4.27h-41.817c-.194-1.4-.315-2.824-.353-4.27z" fill="#dd5e26"/></g><g><path d="m338.61 212.168v10.887h-39.127c-2.209-1.976-4.196-4.196-5.917-6.617-.972-1.361-1.859-2.789-2.655-4.27z" fill="#ea792e"/><path d="m338.61 212.168v4.27h-45.045c-.972-1.361-1.859-2.789-2.655-4.27z" fill="#dd5e26"/></g><g><path d="m345.446 229.892v3.372h-19.265c-5.73 0-11.174-1.202-16.101-3.372z" fill="#ea792e"/><path d="m345.446 229.892v3.372h-19.265c-5.73 0-11.174-1.202-16.101-3.372z" fill="#dd5e26"/></g><g><path d="m328.355 159.004v10.884h-42.174c.067-2.259.318-4.465.746-6.614.092-.467.191-.93.304-1.393l.792-2.877z" fill="#ea792e"/><path d="m328.355 159.004v4.27h-41.428c.092-.467.191-.93.304-1.393l.792-2.877z" fill="#dd5e26"/></g><g><path d="m338.995 141.28v10.887h-48.088c.675-1.258 1.417-2.474 2.22-3.644.703-1.025 1.453-2.018 2.245-2.973 1.262-1.524 2.637-2.952 4.111-4.27z" fill="#ea792e"/><path d="m338.995 141.28v4.27h-43.624c1.262-1.524 2.637-2.952 4.111-4.27z" fill="#dd5e26"/></g><g><path d="m347.224 132.712v1.732h-37.144c4.924-2.17 10.371-3.372 16.101-3.372h9.675c3.949 0 7.766.572 11.368 1.64z" fill="#ea792e"/></g></g><path d="m392.366 171.085v22.167c0 3.37-.417 6.641-1.203 9.769-4.358 17.374-20.082 30.244-38.813 30.244h-9.677c-22.102 0-40.016-17.915-40.016-40.013v-22.167c0-8.368 2.57-16.137 6.963-22.56 7.205-10.538 19.323-17.453 33.053-17.453h9.677c22.102 0 40.016 17.914 40.016 40.013z" fill="#f9c744"/><path d="m392.366 171.085v22.167c0 3.37-.417 6.641-1.203 9.769-5.907 2.017-12.175 3.1-18.67 3.1-31.037 0-56.926-24.734-62.873-57.596 7.205-10.538 19.323-17.453 33.053-17.453h9.677c22.102 0 40.016 17.914 40.016 40.013z" fill="#fad98f"/><path d="m363.614 150.478c-2.404 1.518-3.123 4.697-1.605 7.102l9.032 14.308c1.518 2.404 4.697 3.123 7.102 1.605 2.404-1.518 3.123-4.697 1.605-7.102l-9.032-14.308c-1.518-2.404-4.698-3.123-7.102-1.605z" fill="#faefdc"/><g><path d="m351.927 135.542h-8.83c-12.529 0-23.587 6.31-30.162 15.926-4.008 5.861-6.354 12.95-6.354 20.586v20.227c0 20.165 16.347 36.512 36.515 36.512h8.83c17.093 0 31.44-11.743 35.417-27.598.717-2.854 1.098-5.839 1.098-8.914v-20.227c.001-20.165-16.346-36.512-36.514-36.512zm34.984 56.361c0 2.96-.366 5.834-1.057 8.581-3.828 15.261-17.639 26.565-34.092 26.565h-8.5c-19.413 0-35.149-15.736-35.149-35.146v-19.471c0-7.35 2.258-14.174 6.116-19.816 6.329-9.256 16.973-15.33 29.033-15.33h8.5c19.413 0 35.149 15.736 35.149 35.146z" fill="#dd5e26"/><path d="m351.762 137.287h-8.5c-12.061 0-22.704 6.074-29.033 15.33-3.858 5.642-6.116 12.466-6.116 19.816v19.471c0 19.41 15.736 35.146 35.149 35.146h8.5c16.453 0 30.264-11.304 34.092-26.565.691-2.747 1.057-5.62 1.057-8.581v-19.471c0-19.411-15.736-35.146-35.149-35.146zm31.509 53.717c0 2.687-.332 5.295-.959 7.788-3.474 13.851-16.01 24.111-30.943 24.111h-7.715c-17.62 0-31.902-14.282-31.902-31.899v-17.672c0-6.671 2.049-12.865 5.551-17.985 5.744-8.401 15.405-13.914 26.351-13.914h7.715c17.62 0 31.902 14.282 31.902 31.899z" fill="#ea792e"/></g></g><g><path d="m364.616 185.462-1.152.675-12.853 7.504c-1.916 1.121-4.284 1.121-6.2 0l-14.002-8.18c-2.623-1.531-3.499-4.903-1.958-7.515l15.274-25.886 1.23-2.086c1.149-1.944 3.963-1.944 5.111 0l16.504 27.971c1.542 2.615.665 5.987-1.954 7.517z" fill="#dd5e26"/><path d="m366.807 191.168-2.029 2.895-.979 1.396-13.857 19.767c-.863 1.227-2.418 1.559-3.659 1-.463-.209-.88-.544-1.202-1l-13.857-19.767-3.008-4.291c-.587-.838.385-1.88 1.262-1.354l14.868 8.933c1.948 1.17 4.383 1.17 6.331 0l14.868-8.933c.877-.527 1.849.516 1.262 1.354z" fill="#dd5e26"/><g fill="#ea792e"><path d="m363.464 186.137-12.853 7.504c-1.916 1.121-4.284 1.121-6.2 0l-14.002-8.18c-2.623-1.531-3.499-4.903-1.958-7.515l15.274-25.886c1.071-.088 2.185.396 2.807 1.449l16.504 27.971c.866 1.469.968 3.173.428 4.657z"/><path d="m350.678 203.342c-1.948 1.17-4.383 1.17-6.331 0l-13.121-7.883 13.857 19.767c.322.456.739.792 1.202 1l10.167-14.504c.513-.732-.338-1.646-1.104-1.185z"/></g></g></g><g><g><g><path d="m377.245 248.976h-22.541c-12.995 0-24.464 6.545-31.283 16.518-4.157 6.079-6.59 13.432-6.59 21.352v20.98c0 20.915 16.955 37.87 37.873 37.87h22.541z" fill="#f39e22"/><g><path d="m316.831 292.184h39.932v10.304h-39.932z" fill="#ea792e"/><path d="m316.831 292.184h39.932v4.045h-39.932z" fill="#dd5e26"/></g><g><path d="m356.763 308.959v10.301h-38.173c-.642-2.017-1.114-4.108-1.405-6.259-.184-1.325-.298-2.673-.335-4.041h39.913z" fill="#ea792e"/><path d="m356.763 308.959v4.041h-39.578c-.184-1.325-.298-2.673-.335-4.041z" fill="#dd5e26"/></g><g><path d="m366.468 325.73v10.304h-37.032c-2.091-1.87-3.971-3.971-5.6-6.263-.92-1.288-1.76-2.64-2.513-4.041z" fill="#ea792e"/><path d="m366.468 325.73v4.041h-42.632c-.92-1.288-1.76-2.64-2.513-4.041z" fill="#dd5e26"/></g><g><path d="m372.939 342.505v3.192h-18.233c-5.423 0-10.575-1.138-15.239-3.192z" fill="#ea792e"/><path d="m372.939 342.505v3.192h-18.233c-5.423 0-10.575-1.138-15.239-3.192z" fill="#dd5e26"/></g><g><path d="m356.763 275.413v10.301h-39.916c.064-2.138.301-4.225.706-6.26.087-.442.181-.88.288-1.318l.749-2.723z" fill="#ea792e"/><path d="m356.763 275.413v4.041h-39.21c.087-.442.181-.88.288-1.318l.749-2.723z" fill="#dd5e26"/></g><g><path d="m366.833 258.638v10.304h-45.513c.639-1.191 1.342-2.342 2.101-3.449.666-.97 1.375-1.91 2.124-2.814 1.194-1.442 2.496-2.794 3.891-4.041z" fill="#ea792e"/><path d="m366.833 258.638v4.041h-41.287c1.194-1.442 2.496-2.794 3.891-4.041z" fill="#dd5e26"/></g><g><path d="m374.621 250.529v1.639h-35.155c4.66-2.054 9.816-3.192 15.239-3.192h9.157c3.737 0 7.35.542 10.759 1.553z" fill="#ea792e"/></g></g><path d="m417.346 286.847v20.98c0 3.19-.395 6.286-1.139 9.246-4.125 16.444-19.006 28.624-36.735 28.624h-9.159c-20.918 0-37.873-16.955-37.873-37.87v-20.98c0-7.92 2.433-15.273 6.59-21.352 6.82-9.974 18.288-16.518 31.283-16.518h9.159c20.919-.001 37.874 16.955 37.874 37.87z" fill="#f9c744"/><path d="m417.346 286.847v20.98c0 3.19-.395 6.286-1.139 9.246-5.59 1.909-11.523 2.934-17.67 2.934-29.375 0-53.877-23.409-59.506-54.511 6.82-9.974 18.288-16.518 31.283-16.518h9.159c20.918-.002 37.873 16.954 37.873 37.869z" fill="#fad98f"/><path d="m390.133 267.344c-2.276 1.436-2.956 4.446-1.519 6.721l8.549 13.542c1.436 2.276 4.446 2.956 6.721 1.519 2.276-1.437 2.956-4.446 1.519-6.721l-8.549-13.542c-1.436-2.276-4.445-2.956-6.721-1.519z" fill="#faefdc"/><g><path d="m379.072 253.208h-8.357c-11.858 0-22.323 5.972-28.546 15.073-3.793 5.547-6.013 12.257-6.013 19.484v19.144c0 19.085 15.472 34.557 34.56 34.557h8.357c16.177 0 29.757-11.114 33.521-26.12.679-2.701 1.039-5.526 1.039-8.437v-19.144c-.001-19.086-15.473-34.557-34.561-34.557zm33.11 53.342c0 2.802-.347 5.521-1 8.121-3.623 14.444-16.694 25.143-32.266 25.143h-8.045c-18.374 0-33.267-14.893-33.267-33.264v-18.428c0-6.956 2.137-13.415 5.788-18.755 5.99-8.761 16.064-14.509 27.478-14.509h8.045c18.374 0 33.267 14.893 33.267 33.264z" fill="#dd5e26"/><path d="m378.916 254.859h-8.045c-11.415 0-21.488 5.749-27.478 14.509-3.651 5.339-5.788 11.798-5.788 18.755v18.428c0 18.371 14.893 33.264 33.267 33.264h8.045c15.572 0 28.643-10.699 32.266-25.143.654-2.6 1-5.319 1-8.121v-18.428c-.001-18.372-14.894-33.264-33.267-33.264zm29.822 50.84c0 2.543-.315 5.011-.908 7.371-3.288 13.11-15.152 22.82-29.286 22.82h-7.301c-16.677 0-30.194-13.517-30.194-30.191v-16.726c0-6.314 1.94-12.176 5.254-17.022 5.437-7.951 14.58-13.169 24.94-13.169h7.301c16.677 0 30.194 13.517 30.194 30.191z" fill="#ea792e"/></g></g><g><path d="m394.577 307.177c3.278 4.729 2.006 11.258-2.88 14.386-.082.056-.165.109-.251.161-4.41 2.659-10.223 1.545-13.343-2.554-2.64-3.462-2.711-8.014-.615-11.476.57-.945.544-2.134-.026-3.079l-1.148-1.905c-1.069-1.778-2.993-2.861-5.067-2.861h-1.605c-1.196 0-2.258.716-2.768 1.804-1.624 3.469-5.149 5.873-9.233 5.873-5.85 0-10.549-4.928-10.171-10.861.116-1.785.698-3.45 1.628-4.872 1.751-2.678 4.725-4.493 8.086-4.639 4.302-.191 8.044 2.288 9.717 5.918.495 1.069 1.568 1.748 2.741 1.748h2.599c1.2 0 2.359-.364 3.334-1.031.39-.263.754-.578 1.073-.938l2.055-2.299c.758-.848.964-2.044.566-3.105-1.118-2.989-.784-6.402 1.005-9.139.379-.581.821-1.136 1.335-1.646 4.137-4.137 10.943-3.975 14.87.488 3.405 3.87 3.341 9.796-.142 13.598-.608.664-1.283 1.226-2.003 1.688-2.674 1.729-5.974 2.074-8.903 1.046-1.181-.416-2.494-.12-3.33.814l-.071.075c-.454.51-.81 1.084-1.058 1.691-.701 1.699-.585 3.668.401 5.307l.083.135c.63 1.046 1.83 1.639 3.03 1.433 3.78-.643 7.762.884 10.091 4.24z" fill="#dd5e26"/><path d="m382.029 294.37.071-.075c.836-.934 2.149-1.23 3.33-.814 2.929 1.028 6.229.683 8.903-1.046 1.05-1.598 1.658-3.514 1.658-5.569 0-5.629-4.564-10.189-10.189-10.189-2.036 0-3.934.596-5.528 1.631-1.789 2.738-2.123 6.15-1.005 9.139.398 1.061.191 2.258-.566 3.105l-2.055 2.299c-.319.36-.683.675-1.073.938l-1.788 1.788c-1.042 1.042-2.456 1.628-3.93 1.628h-3.342c-1.241 0-2.351-.705-2.951-1.789-1.875-3.394-5.629-5.603-9.859-5.224-1.684.146-3.255.72-4.605 1.601-.93 1.421-1.511 3.086-1.628 4.872-.379 5.933 4.32 10.861 10.171 10.861 4.084 0 7.609-2.404 9.233-5.873.51-1.088 1.571-1.804 2.768-1.804h1.605c2.074 0 3.998 1.084 5.067 2.861l1.148 1.905c.57.945.596 2.134.026 3.079-2.096 3.461-2.025 8.014.615 11.476 3.177 4.173 9.144 5.252 13.581 2.406.005-.005.009-.009.014-.013.956-1.436 1.556-3.128 1.669-4.939.367-5.922-4.328-10.838-10.171-10.838h-.034c-1.223.004-2.359-.611-2.966-1.669-1.432-2.485-1.194-5.594.598-7.833l.178-.223c.245-.607.601-1.181 1.055-1.691z" fill="#ea792e"/></g></g><g><g><g><path d="m378.5 31.16c-11.533 2.726-20.873 12.511-23.02 24.16-.881 4.249-.488 9.265-.57 13.59.006 2.339-.004 7.153 0 9.48-.011 5.079 1.274 10.173 3.67 14.63h.01c1.328 2.499 3.011 4.799 4.98 6.83 0 .02.02.04.05.06h.01c5.726 5.989 13.917 9.46 22.24 9.43 3.938-.001 14.626 0 18.42 0 0-19.64 0-42.36 0-62.04-2.79-1.99-5.63-3.92-8.51-5.8v-.02h-.03c-5.607-3.664-11.369-7.104-17.25-10.32z" fill="#f39e22"/><g><path d="m354.908 65.6h32.643v8.423h-32.643z" fill="#ea792e"/><path d="m354.908 65.6h32.643v3.306h-32.643z" fill="#dd5e26"/></g><g><path d="m387.551 79.312v8.42h-31.204c-.857-2.694-1.341-5.558-1.422-8.42z" fill="#ea792e"/><path d="m387.551 79.312v3.304h-32.353c-.15-1.083-.243-2.185-.273-3.304z" fill="#dd5e26"/></g><g><path d="m395.484 93.022v8.423h-30.272c-2.676-2.393-4.93-5.255-6.632-8.423z" fill="#ea792e"/><path d="m395.484 93.022v3.304h-34.85c-.752-1.053-1.439-2.158-2.054-3.304z" fill="#dd5e26"/></g><g><path d="m400.774 106.734v2.609h-14.905c-4.433 0-8.645-.93-12.457-2.609z" fill="#ea792e"/><path d="m400.774 106.734v2.609h-14.905c-4.433 0-8.645-.93-12.457-2.609z" fill="#dd5e26"/></g><g><path d="m387.551 51.89v8.42h-32.629c.06-2.858.603-5.712 1.425-8.42z" fill="#ea792e"/><path d="m387.551 51.89v3.304h-32.052c.119-.744.645-2.555.848-3.304z" fill="#dd5e26"/></g><g><path d="m395.78 41.48v5.12h-37.2c1.697-3.157 3.957-6.031 6.63-8.42h25.35c1.748 1.073 3.477 2.187 5.19 3.3z" fill="#ea792e"/><path d="m395.75 41.48h-33.72c.98-1.18 2.04-2.28 3.18-3.3h25.35c1.748 1.073 3.477 2.187 5.19 3.3z" fill="#dd5e26"/></g><g><path d="m378.52 31.17c1.04.57 2.07 1.14 3.09 1.72h-8.19c1.643-.723 3.35-1.315 5.1-1.72z" fill="#ea792e"/></g></g><path d="m434.04 72.05c-6.263-6.075-12.847-11.793-19.68-17.21h-.01c-5.974-4.716-12.182-9.173-18.57-13.34v-.02h-.03c-3.934-2.563-7.948-5.05-12.03-7.38-7.925 4.322-13.748 12.213-15.45 21.09-1.058 4.065-.451 18.814-.6 23.2-.116 12.069 7.425 23.575 18.5 28.34 3.81 1.68 8.03 2.61 12.46 2.61h7.48c18.837.004 32.438-16.266 30.96-34.31-1-1-2.02-1.99-3.03-2.98z" fill="#f9c744"/><path d="m434.04 72.05c-6.263-6.075-12.847-11.793-19.68-17.21h-.01c-5.974-4.716-12.182-9.173-18.57-13.34v-.02h-.03c-3.934-2.563-7.948-5.05-12.03-7.38-4.262 2.341-7.924 5.671-10.66 9.68 4.947 29.452 33.184 52.295 63.08 42.16.932-3.368.987-7.355.93-10.91-1-1-2.02-1.99-3.03-2.98z" fill="#fad98f"/><path d="m424.87 63.6c-2.028.521-3.896-.702-4.79-2.52 0 0-2.09-3.31-2.09-3.31 2.328 1.894 4.625 3.844 6.88 5.83z" fill="#faefdc"/><g><g fill="#dd5e26"><path d="m432.85 70.9v6.44c.125 14.622-12.061 27.275-27.19 27.19-1.946-.027-7.316.095-9.15-.13-4.392-.383-8.678-1.909-12.36-4.33-3.38-2.245-6.336-5.29-8.41-8.78-2.043-3.38-3.321-7.227-3.71-11.17-.257-1.71-.101-15.811-.14-17.84-.122-10.847 6.852-21.175 16.91-25.18-.48-.29-.96-.59-1.45-.87-7.802 3.477-13.814 10.644-15.82 18.96-1.407 4.503-.654 17.632-.83 22.45-.059 9.516 5.011 18.753 13.06 23.8 4.39 2.82 9.61 4.44 15.2 4.44h6.83c15.717.089 28.367-13.054 28.25-28.24v-5.59c-.4-.39-.8-.77-1.19-1.15z"/><path d="m429.3 82.66c-.724 2.842-1.949 5.562-3.61 7.97h-6.98c-1.81 0-3.36-1.18-3.9-2.82-.13-.4-.2-.83-.2-1.28v-20.45c-1.778 1.886-7.381 7.889-9.24 9.88-.32.34-.68.61-1.08.82-1.57.871-3.704.517-4.91-.82 0 0-9.24-9.88-9.24-9.88v20.45c.007 2.282-1.899 4.12-4.11 4.1h-6.98c-1.675-2.4-2.886-5.128-3.6-7.97.884-.428 5.465-.16 6.48-.23v-26.74c-.095-3.623 4.673-5.537 7.1-2.8 0 0 13.34 14.26 13.34 14.26 2.109-2.243 9.56-10.228 11.72-12.52.09.07.17.14.26.21h.01c2.859 2.273 5.683 4.583 8.45 6.97v20.62c1.044.07 5.577-.199 6.49.23z"/></g><path d="m384.03 68.91c-.73-.95-1.43-1.93-2.1-2.94v13.34h5.47v-10.4zm0 0c-.73-.95-1.43-1.93-2.1-2.94v13.34h5.47v-10.4zm0 0c-.73-.95-1.43-1.93-2.1-2.94v13.34h5.47v-10.4zm0 0c1.06 1.39 2.19 2.72 3.37 3.99v-3.99zm0 0c1.06 1.39 2.19 2.72 3.37 3.99v-3.99zm0 0c1.06 1.39 2.19 2.72 3.37 3.99v-3.99zm0 0c1.06 1.39 2.19 2.72 3.37 3.99v-3.99zm0 0c1.06 1.39 2.19 2.72 3.37 3.99v-3.99zm46.01-.65c-.059 5.129.507 12.342-1.59 17.09h-8.37v-25.85c-1.885-1.595-3.792-3.12-5.72-4.66-.769-.165-9.314 9.632-10.07 10.26-1.116 1.193-3.519 3.759-4.65 4.97l-12.09-12.91-1.26-1.35c-1.061-1.142-2.738-1.596-4.24-1.11-.081.321-.12.651-.12.99v29.66h-5.64c-1.047-2.775-1.574-5.714-1.58-8.7v-13.67c-.144-10.708 7.369-20.749 17.66-23.67-1.181-.752-2.371-1.477-3.57-2.21-10.058 4.006-17.032 14.331-16.91 25.18v15.06c.003 3.555.686 7.113 2.05 10.39h.01c1.286 3.195 3.293 6.12 5.67 8.6h.01c4.091 4.231 9.621 7.051 15.44 7.91 2.6.458 7.904.243 10.59.29 15.128.085 27.317-12.569 27.19-27.19v-6.44c-.93-.89-1.87-1.77-2.81-2.64zm-24.68 33.07h-5.97c-8.099.044-15.827-4.102-20.34-10.7.927-.067 7.495.18 8.23-.19.08-.32.12-.65.12-.99v-26.29c1.783 1.891 10.033 10.72 11.98 12.8.767.826 1.858 1.299 2.99 1.3 1.147-.004 2.216-.473 3-1.3 1.879-2.014 7.433-7.962 9.24-9.88v20.45c0 .45.07.88.2 1.28.54 1.64 2.09 2.82 3.9 2.82h6.98c-4.45 6.46-11.9 10.7-20.33 10.7zm-21.33-32.42c1.06 1.39 2.19 2.72 3.37 3.99v-3.99zm0 0c1.06 1.39 2.19 2.72 3.37 3.99v-3.99zm0 0c1.06 1.39 2.19 2.72 3.37 3.99v-3.99zm0 0c1.06 1.39 2.19 2.72 3.37 3.99v-3.99zm0 0c1.06 1.39 2.19 2.72 3.37 3.99v-3.99zm0 0c-.73-.95-1.43-1.93-2.1-2.94v13.34h5.47v-10.4zm0 0c-.73-.95-1.43-1.93-2.1-2.94v13.34h5.47v-10.4zm0 0c-.73-.95-1.43-1.93-2.1-2.94v13.34h5.47v-10.4z" fill="#ea792e"/></g></g></g><g><g><g><path d="m182.781 103.14h-20.991c-12.102 0-22.782 6.095-29.132 15.383-3.871 5.661-6.137 12.508-6.137 19.883v19.537c0 19.477 15.789 35.266 35.269 35.266h20.991z" fill="#f39e22"/><g><path d="m126.521 143.377h37.187v9.596h-37.187z" fill="#ea792e"/><path d="m126.521 143.377h37.187v3.767h-37.187z" fill="#dd5e26"/></g><g><path d="m163.707 158.998v9.593h-35.548c-.598-1.879-1.037-3.826-1.309-5.829-.171-1.234-.277-2.489-.312-3.764z" fill="#ea792e"/><path d="m163.707 158.998v3.764h-36.856c-.171-1.234-.277-2.489-.312-3.764z" fill="#dd5e26"/></g><g><path d="m172.745 174.616v9.596h-34.485c-1.947-1.742-3.698-3.698-5.215-5.832-.857-1.199-1.639-2.458-2.34-3.764z" fill="#ea792e"/><path d="m172.745 174.616v3.764h-39.701c-.857-1.199-1.639-2.458-2.34-3.764z" fill="#dd5e26"/></g><g><path d="m178.771 190.237v2.972h-16.979c-5.05 0-9.848-1.059-14.191-2.972z" fill="#ea792e"/><path d="m178.771 190.237v2.972h-16.979c-5.05 0-9.848-1.059-14.191-2.972z" fill="#dd5e26"/></g><g><path d="m163.707 127.759v9.593h-37.171c.059-1.991.28-3.935.657-5.829.081-.411.168-.819.268-1.228l.698-2.536z" fill="#ea792e"/><path d="m163.707 127.759v3.764h-36.514c.081-.411.168-.819.268-1.228l.698-2.536z" fill="#dd5e26"/></g><g><path d="m173.085 112.138v9.596h-42.383c.595-1.109 1.249-2.181 1.957-3.212.62-.904 1.28-1.779 1.978-2.62 1.112-1.343 2.324-2.601 3.623-3.764z" fill="#ea792e"/><path d="m173.085 112.138v3.764h-38.448c1.112-1.343 2.324-2.601 3.623-3.764z" fill="#dd5e26"/></g><g><path d="m180.338 104.586v1.527h-32.738c4.34-1.913 9.141-2.972 14.191-2.972h8.527c3.48-.001 6.845.504 10.02 1.445z" fill="#ea792e"/></g></g><path d="m220.124 138.406v19.537c0 2.97-.368 5.854-1.06 8.61-3.841 15.313-17.699 26.656-34.209 26.656h-8.529c-19.48 0-35.269-15.789-35.269-35.266v-19.537c0-7.375 2.266-14.223 6.137-19.883 6.351-9.288 17.03-15.383 29.132-15.383h8.529c19.48 0 35.269 15.79 35.269 35.266z" fill="#f9c744"/><path d="m220.124 138.406v19.537c0 2.97-.368 5.854-1.06 8.61-5.206 1.777-10.731 2.732-16.455 2.732-27.355 0-50.173-21.799-55.415-50.763 6.351-9.288 17.03-15.383 29.132-15.383h8.529c19.48.001 35.269 15.791 35.269 35.267z" fill="#fad98f"/><path d="m194.782 120.244c-2.119 1.338-2.753 4.14-1.415 6.259l7.961 12.611c1.338 2.119 4.14 2.753 6.259 1.415 2.119-1.338 2.753-4.14 1.415-6.259l-7.961-12.611c-1.337-2.119-4.139-2.752-6.259-1.415z" fill="#faefdc"/><g><path d="m184.482 107.081h-7.782c-11.043 0-20.788 5.561-26.583 14.037-3.533 5.165-5.6 11.414-5.6 18.144v17.828c0 17.773 14.408 32.18 32.183 32.18h7.783c15.065 0 27.711-10.35 31.216-24.324.632-2.515.968-5.146.968-7.857v-17.828c-.002-17.773-14.409-32.18-32.185-32.18zm30.834 49.674c0 2.609-.323 5.142-.931 7.563-3.374 13.451-15.546 23.414-30.048 23.414h-7.491c-17.11 0-30.979-13.869-30.979-30.977v-17.161c0-6.478 1.99-12.493 5.39-17.465 5.578-8.158 14.959-13.512 25.589-13.512h7.491c17.11 0 30.979 13.869 30.979 30.977z" fill="#dd5e26"/><path d="m184.337 108.618h-7.491c-10.63 0-20.011 5.353-25.589 13.512-3.4 4.972-5.39 10.987-5.39 17.465v17.161c0 17.108 13.869 30.977 30.979 30.977h7.491c14.501 0 26.674-9.963 30.048-23.414.609-2.421.931-4.954.931-7.563v-17.161c0-17.108-13.869-30.977-30.979-30.977zm27.771 47.345c0 2.368-.293 4.667-.845 6.864-3.062 12.208-14.11 21.251-27.272 21.251h-6.799c-15.53 0-28.117-12.588-28.117-28.115v-15.575c0-5.88 1.806-11.339 4.892-15.852 5.063-7.405 13.577-12.263 23.225-12.263h6.799c15.53 0 28.117 12.588 28.117 28.115z" fill="#ea792e"/></g></g><g><path d="m204.582 143.523-2.754 9.303c-.844 2.854-2.788 5.433-5.237 7.275-2.343 1.757-5.141 2.841-7.873 2.841h-27.675c-1.159 0-1.991-1.115-1.664-2.224l.165-.555.555-1.876c.218-.735.894-1.24 1.661-1.24h24.865c1.77 0 3.446-.495 4.882-1.374 1.935-1.181 3.427-3.053 4.103-5.337l2.415-8.166c.424-1.433-.648-2.869-2.14-2.869h-27.846c-1.156 0-1.988-1.112-1.661-2.225l.165-.554.555-1.872c.218-.735.894-1.243 1.661-1.243h28.703c5.585 0 8.772 4.53 7.12 10.116z" fill="#dd5e26"/><path d="m201.467 146.639-2.754 9.303c-.439 1.483-1.175 2.891-2.122 4.159-2.343 1.757-5.141 2.841-7.873 2.841h-27.675c-1.159 0-1.991-1.115-1.664-2.224l.165-.555h23.964c3.321 0 6.328-1.751 7.998-4.489 1.935-1.181 3.427-3.053 4.103-5.337l2.415-8.166c.424-1.433-.648-2.869-2.14-2.869h-27.846c-1.156 0-1.988-1.112-1.661-2.225l.165-.554h27.803c5.586 0 8.773 4.53 7.122 10.116z" fill="#ea792e"/><path d="m178.796 146.614-.963 3.595c-.231.866-1.016 1.467-1.91 1.467h-18.74c-1.321 0-2.271-1.271-1.897-2.539l.561-1.897.505-1.701c.249-.838 1.022-1.414 1.897-1.414h18.637c1.299 0 2.246 1.23 1.91 2.489z" fill="#dd5e26"/><path d="m175.68 149.73-.52 1.947h-17.976c-1.321 0-2.271-1.271-1.897-2.539l.561-1.897h17.923c1.298-.001 2.245 1.23 1.909 2.489z" fill="#ea792e"/></g></g></g><g><g><g><path d="m302.193 299.279h-188.93c0-4.783 1.153-9.292 3.186-13.276 1.397-2.735 3.215-5.211 5.359-7.362 4.99-4.982 11.775-8.175 19.3-8.515.444-.022.887-.03 1.338-.03h130.556c7.547 0 14.436 2.868 19.618 7.577h.007c5.877 5.344 9.566 13.046 9.566 21.606z" fill="#a26d5a"/><path d="m329.816 326.91v99.111c0 6.061-1.951 11.657-5.256 16.21-5.019 6.919-13.172 11.413-22.368 11.413h-161.305c-6.668 0-12.781-2.358-17.556-6.298-6.15-5.064-10.068-12.736-10.068-21.326v-126.741c0-4.783 1.153-9.292 3.186-13.276 1.397-2.735 3.215-5.211 5.359-7.362.636-.628 1.294-1.234 1.981-1.804 5.056-4.206 11.561-6.741 18.657-6.741h130.556c7.547 0 14.436 2.868 19.618 7.577-5.47 5.167-12.84 8.331-20.949 8.331h-117.287c-3.666 0-6.985 1.486-9.388 3.888-2.402 2.402-3.888 5.721-3.888 9.388h161.084c12.034 0 22.272 7.695 26.056 18.435 1.014 2.875 1.568 5.972 1.568 9.195z" fill="#d48d77"/><path d="m303.316 299.301c11.914.476 11.372 18.413-.552 18.413h-143.22c-5.093 0-9.705-2.062-13.039-5.396-3.334-3.341-5.396-7.946-5.396-13.039h161.084c.376 0 .75.007 1.123.022z" fill="#eea47d"/><path d="m295.281 426.02h-164.699v-132.825c0-6.394-2.595-12.182-6.793-16.358-.687.569-1.345 1.175-1.981 1.804-2.144 2.151-3.962 4.627-5.359 7.362-2.033 3.984-3.186 8.493-3.186 13.276v126.741c0 8.589 3.918 16.262 10.068 21.326 4.775 3.94 10.888 6.298 17.556 6.298h161.306c9.196 0 17.349-4.494 22.368-11.413-6.113-9.735-16.943-16.211-29.28-16.211z" fill="#c17e62"/><path d="m263.718 286.003h-114.656c-4.393 0-7.954-3.561-7.954-7.954 0-4.393 3.561-7.954 7.954-7.954h114.656c4.393 0 7.954 3.561 7.954 7.954 0 4.393-3.561 7.954-7.954 7.954z" fill="#eea47d"/><path d="m329.816 426.02v-99.111c-14.772 0-26.747 11.975-26.747 26.747v45.616c0 14.773 11.975 26.748 26.747 26.748z" fill="#eea47d"/><g><g><g><path d="m138.299 445.143h-7.417c-1.429 0-2.587-1.158-2.587-2.587s1.159-2.587 2.587-2.587h7.417c1.429 0 2.587 1.158 2.587 2.587s-1.159 2.587-2.587 2.587z" fill="#3f5d77"/></g><g><path d="m274.511 445.143h-15.135c-1.429 0-2.587-1.158-2.587-2.587s1.159-2.587 2.587-2.587h15.135c1.429 0 2.587 1.158 2.587 2.587s-1.158 2.587-2.587 2.587zm-45.404 0h-15.135c-1.429 0-2.587-1.158-2.587-2.587s1.159-2.587 2.587-2.587h15.135c1.429 0 2.587 1.158 2.587 2.587s-1.158 2.587-2.587 2.587zm-45.404 0h-15.135c-1.429 0-2.587-1.158-2.587-2.587s1.159-2.587 2.587-2.587h15.135c1.429 0 2.587 1.158 2.587 2.587s-1.158 2.587-2.587 2.587z" fill="#3f5d77"/></g><g><path d="m312.198 445.143h-7.417c-1.429 0-2.587-1.158-2.587-2.587s1.159-2.587 2.587-2.587h7.417c1.429 0 2.587 1.158 2.587 2.587s-1.158 2.587-2.587 2.587z" fill="#3f5d77"/></g></g><g><g><path d="m138.299 312.954h-7.417c-1.429 0-2.587-1.158-2.587-2.587s1.159-2.587 2.587-2.587h7.417c1.429 0 2.587 1.158 2.587 2.587s-1.159 2.587-2.587 2.587z" fill="#3f5d77"/></g><g><path d="m274.511 312.954h-15.135c-1.429 0-2.587-1.158-2.587-2.587s1.159-2.587 2.587-2.587h15.135c1.429 0 2.587 1.158 2.587 2.587s-1.158 2.587-2.587 2.587zm-45.404 0h-15.135c-1.429 0-2.587-1.158-2.587-2.587s1.159-2.587 2.587-2.587h15.135c1.429 0 2.587 1.158 2.587 2.587s-1.158 2.587-2.587 2.587zm-45.404 0h-15.135c-1.429 0-2.587-1.158-2.587-2.587s1.159-2.587 2.587-2.587h15.135c1.429 0 2.587 1.158 2.587 2.587s-1.158 2.587-2.587 2.587z" fill="#3f5d77"/></g><g><path d="m312.198 312.954h-7.417c-1.429 0-2.587-1.158-2.587-2.587s1.159-2.587 2.587-2.587h7.417c1.429 0 2.587 1.158 2.587 2.587s-1.158 2.587-2.587 2.587z" fill="#3f5d77"/></g></g></g></g><g><g><path d="m355.106 356.749h-71.654c-6.506 0-11.781 5.274-11.781 11.781v15.358c0 6.506 5.274 11.781 11.781 11.781h71.654c6.506 0 11.781-5.274 11.781-11.781v-15.358c0-6.506-5.275-11.781-11.781-11.781z" fill="#c17e62"/><path d="m354.922 361.87h-71.285c-2.746 0-4.973 2.226-4.973 4.973 0 2.746 2.226 4.973 4.973 4.973h71.285c2.746 0 4.973-2.226 4.973-4.973-.001-2.747-2.227-4.973-4.973-4.973z" fill="#d48d77"/></g><g><path d="m308.092 376.465v.037c-.022 5.936-4.842 10.74-10.777 10.74-5.958 0-10.785-4.827-10.785-10.777 0-5.928 4.79-10.74 10.718-10.777h.067c.747 0 1.471.074 2.173.222 3.637.739 6.601 3.319 7.902 6.719.45 1.19.702 2.483.702 3.836z" fill="#334353"/><path d="m308.092 376.465v.037c-1.131 3.385-4.332 5.825-8.094 5.825-4.724 0-8.545-3.829-8.545-8.545 0-3.755 2.424-6.948 5.795-8.094h.067c5.95 0 10.777 4.827 10.777 10.777z" fill="#3e4e60"/><path d="m307.389 372.629c-.569 2.661-2.935 4.657-5.766 4.657-3.253 0-5.891-2.639-5.891-5.891 0-2.498 1.56-4.627 3.755-5.485 3.637.739 6.601 3.318 7.902 6.719z" fill="#3f5d77"/></g></g></g><g><g><g><path d="m232.476 204.893v94.386h-59.638c-.505-.635-1.018-1.274-1.473-1.943-.311-.446-.614-.893-.909-1.34-.013-.007-.02-.02-.02-.027-4.619-6.976-7.101-15.36-7.083-23.737.026-1.416-.07-25.804.073-26.543.198-3.574.86-7.135 1.937-10.545h.007c.806-2.583 1.865-5.065 3.13-7.408.708-1.368 1.528-2.667 2.394-3.94v-.007c1.433-2.064 3.011-4.03 4.782-5.817 0-.02.007-.02.007-.007.006-.02.006-.027.013-.02.007-.02.013-.027.02-.02.663-.696 1.348-1.333 2.056-1.976h.007c6.284-5.67 14.384-9.473 22.809-10.625 4.077-.816 27.327-.293 31.888-.431z" fill="#f39e22"/><g><path d="m163.351 254.329h45.691v11.79h-45.691z" fill="#ea792e"/><path d="m163.351 254.329h45.691v4.628h-45.691z" fill="#dd5e26"/></g><g><path d="m209.041 273.522v11.786h-43.677c-1.2-3.771-1.878-7.78-1.991-11.786z" fill="#ea792e"/><path d="m209.041 273.522v4.624h-45.285c-.211-1.516-.341-3.059-.383-4.624z" fill="#dd5e26"/></g><g><path d="m220.146 292.712v6.566h-47.309c-.505-.635-1.018-1.274-1.473-1.943-.311-.45-.623-.9-.915-1.353-.716-1.051-1.346-2.156-1.957-3.27z" fill="#ea792e"/><path d="m220.146 292.712v4.624h-48.78c-1.053-1.474-2.014-3.02-2.875-4.624z" fill="#dd5e26"/></g><g><path d="m209.041 235.139v11.786h-45.671c.083-4 .844-7.995 1.994-11.786z" fill="#ea792e"/><path d="m209.041 235.139v4.624h-44.864c.165-1.035.904-3.581 1.187-4.624z" fill="#dd5e26"/></g><g><path d="m220.564 215.946v11.79h-52.076c2.386-4.434 5.539-8.435 9.287-11.79z" fill="#ea792e"/><path d="m220.564 215.946v4.624h-47.241c1.367-1.65 2.856-3.196 4.452-4.624z" fill="#dd5e26"/></g><g><path d="m229.475 206.666v1.876h-40.225c5.332-2.35 11.231-3.652 17.436-3.652h10.477c4.277 0 8.412.62 12.312 1.776z" fill="#ea792e"/></g></g><path d="m278.358 248.222v24.003c.035 9.845-3.415 19.533-9.491 27.054h-78.176c-.511-.63-.995-1.28-1.466-1.937 0 0 0-.007-.007-.007-5.18-7.267-8.035-16.138-8.005-25.104.209-6.278-.637-26.62.822-32.466.836-4.203 2.295-8.297 4.324-12.031.723-1.36 1.525-2.673 2.394-3.94v-.007c.2-.295.404-.581.617-.869 0 0-.007-.007.007-.007.113-.159.232-.325.358-.484-.003-.02.017-.037.033-.053 0-.013.013-.027.033-.04 0-.013.007-.027.027-.04 0 0-.007-.007.013-.007-.013-.007-.007-.013.007-.02.215-.289.431-.587.67-.869.814-1.037 1.679-2.042 2.6-3.004.803-.846 1.65-1.663 2.514-2.447h.007c6.924-6.242 15.917-10.143 25.216-10.897 0 0 .007-.007.013 0 .007-.007.007 0 .007 0s.007-.007.013 0c2.505-.282 11.476-.118 14.14-.159 23.931.002 43.33 19.401 43.33 43.331z" fill="#f9c744"/><path d="m278.361 248.221v24.005c0 3.65-.452 7.192-1.303 10.579-40.078 13.851-81.017-16.049-88.306-59.015 7.803-11.412 20.925-18.9 35.795-18.9h10.479c23.935 0 43.335 19.4 43.335 43.331z" fill="#fad98f"/><path d="m247.224 225.906c-2.604 1.644-3.382 5.087-1.738 7.691l9.781 15.495c1.644 2.604 5.087 3.382 7.691 1.738s3.382-5.087 1.738-7.691l-9.781-15.495c-1.644-2.603-5.088-3.382-7.691-1.738z" fill="#faefdc"/><g><path d="m234.565 209.734h-9.557c-13.618.02-25.912 6.858-33.155 18-.007 0-.007.007-.007.007-3.748 5.716-5.911 12.335-6.321 19.187-.046.776-.066 1.559-.066 2.348v21.9c-.044 10.468 4.273 20.8 11.733 28.101h2.786c-8.11-7.09-12.909-17.706-12.853-28.506.024-1.617-.086-22.929.099-23.844.495-6.908 2.861-13.575 6.865-19.187 0 0 0-.007.006-.007 7.099-10.032 18.573-16.112 31.093-16.11h9.199c21.025 0 38.07 17.039 38.07 38.057v21.091c.053 10.836-4.778 21.438-12.86 28.506h2.792c7.414-7.283 11.767-17.587 11.726-28.101v-21.9c-.001-21.84-17.71-39.542-39.55-39.542z" fill="#dd5e26"/><path d="m234.386 211.624h-9.199c-12.517-.002-23.997 6.078-31.093 16.11-.006 0-.006.007-.006.007-4.004 5.613-6.37 12.279-6.865 19.187-.166.876-.084 22.276-.099 23.843-.056 10.8 4.744 21.416 12.853 28.506h7.621c-10.128-6.117-16.633-17.607-16.534-29.481.069-2.717-.192-20.564.205-22.868.44-4.156 1.612-8.11 3.475-11.792 5.681-11.495 17.964-19.125 30.867-19.022h8.35c19.081 0 34.548 15.467 34.548 34.541-.224 5.959.72 21.983-1.035 27.571-2.171 8.735-7.855 16.403-15.513 21.051h7.634c8.083-7.068 12.912-17.67 12.86-28.506v-21.091c.001-21.017-17.045-38.056-38.069-38.056z" fill="#ea792e"/></g></g><g><path d="m245.223 257.832h-.511c.948-1.522 3.072-4.14 3.588-5.85.658-1.605.386-4.813.438-6.546.031-5.172-4.54-9.028-9.61-8.562v-10.088c0-1.645-1.333-2.985-2.985-2.985-.459.019-3.277-.055-3.668.06-1.36.285-2.374 1.486-2.374 2.925v10.088h-4.941v-10.088c0-1.645-1.333-2.985-2.985-2.985h-3.058c-1.645 0-2.985 1.34-2.985 2.985v10.088h-11.686c-1.612 0-2.925 1.28-2.971 2.892-.007.033-.007.06-.007.093v3.058c0 1.651 1.333 2.985 2.978 2.985h6.579v28.652h-6.579c-1.645 0-2.978 1.333-2.978 2.985v3.058c0 1.651 1.333 2.985 2.978 2.985h11.686v10.088c0 1.645 1.34 2.985 2.985 2.985h3.058c1.616.011 2.993-1.326 2.985-2.985v-10.088h4.941v10.088c0 1.439 1.015 2.64 2.374 2.925.373.113 3.225.041 3.668.06 1.62.007 2.993-1.329 2.985-2.985v-10.088h6.095c5.792.003 10.519-4.703 10.519-10.519v-4.709c0-5.813-4.716-10.522-10.519-10.522zm-9.053-11.931c2.261-.016 3.856 2.024 3.615 4.212.009 2.02-1.664 3.633-3.615 3.615h-11.01v-7.826h11.01zm8.755 23.764c.005 2.726-2.233 4.906-4.888 4.888h-14.876v-10.579h14.876c3.07-.009 5.203 2.716 4.888 5.691z" fill="#dd5e26"/><path d="m242.676 261.58h-5.041c3.755-.004 6.95-2.409 8.105-5.803.685-1.621.404-4.837.458-6.593.031-5.176-4.544-9.03-9.617-8.562v-10.088c0-1.645-1.333-2.985-2.978-2.985-.283.008-3.305-.029-3.502.033v13.039h-7.481v-10.088c.009-1.657-1.38-2.989-2.985-2.985-.282.009-3.306-.029-3.502.033v13.039h-14.233c-.146 0-.292.013-.431.033v2.262c0 1.651 1.333 2.985 2.978 2.985h6.579v32.4h-9.126c-.146 0-.292.013-.431.033v2.262c0 1.651 1.333 2.985 2.978 2.985h11.686v10.088c0 1.645 1.34 2.985 2.985 2.985.289-.008 3.297.029 3.502-.033v-13.039h7.481v10.088c-.011 1.654 1.373 3.002 2.985 2.985.282-.009 3.299.03 3.495-.033v-13.039h8.642c2.792 0 5.339-1.088 7.223-2.878 1.064-2.192.69-6.198.75-8.602-.001-5.813-4.71-10.522-10.52-10.522zm-20.056-15.679h13.55c2.261-.016 3.856 2.024 3.615 4.212 0 7.077-3.409 7.362-6.155 7.362h-11.01zm22.305 23.764c0 6.971-1.691 8.635-7.428 8.635h-14.877v-14.326h17.417c3.07-.009 5.203 2.716 4.888 5.691z" fill="#ea792e"/></g></g></g></g></svg>